# xmcd
#
# Track frame offsets: 
#        150
#        10872
#        23440
#        36142
#        52470
#        74447
#        90347
#        110715
#        128747
#        141087
#        157787
#        168625
#        194367
#        214465
#        218172
#
# Disc length: 3220 seconds
#
# Revision: 3
# Processed by: cddbd v1.5.2PL0 Copyright (c) Steve Scherf et al.
# Submitted via: ExactAudioCopy v0.99pb4
#
DISCID=d60c920f
DTITLE=The Buckets - The Buckets
DYEAR=1996
DGENRE=Alt. Rock
TTITLE0=I'm Drunk
TTITLE1=Coffee and Beer
TTITLE2=Empty Cage
TTITLE3=I Wrote this Song
TTITLE4=Western Star
TTITLE5=Doughnuts
TTITLE6=Cowgirls
TTITLE7=Brand
TTITLE8=Gone to Meet You
TTITLE9=Postmarked, Virginia
TTITLE10=Come Around
TTITLE11=Mistake #1
TTITLE12=Beer Belly
TTITLE13=Buckets Theme
TTITLE14=Song of the true Divided Highway
EXTD=
EXTT0=
EXTT1=
EXTT2=
EXTT3=
EXTT4=
EXTT5=
EXTT6=
EXTT7=
EXTT8=
EXTT9=
EXTT10=
EXTT11=
EXTT12=
EXTT13=
EXTT14=
PLAYORDER=
